<?xml version="1.0" standalone="no"?>
<!DOCTYPE svg PUBLIC "-//W3C//DTD SVG 20010904//EN"
 "http://www.w3.org/TR/2001/REC-SVG-20010904/DTD/svg10.dtd">
<svg version="1.0" xmlns="http://www.w3.org/2000/svg"
 width="800.000000pt" height="800.000000pt" viewBox="0 0 800.000000 800.000000"
 preserveAspectRatio="xMidYMid meet">
<metadata>
Created by potrace 1.16, written by Peter Selinger 2001-2019
</metadata>
<g transform="translate(0.000000,800.000000) scale(0.100000,-0.100000)"
fill="#000000" stroke="none">
<path d="M3805 6320 c-66 -4 -151 -15 -190 -23 -133 -30 -349 -88 -359 -96 -6
-5 -40 -19 -76 -31 -36 -12 -94 -37 -130 -56 -35 -19 -68 -34 -73 -34 -12 0
-193 -105 -251 -146 -130 -92 -193 -138 -216 -159 -81 -75 -165 -159 -220
-220 -63 -70 -200 -249 -200 -261 0 -4 -12 -23 -27 -43 -41 -53 -95 -155 -170
-321 -38 -83 -119 -337 -131 -410 -41 -246 -46 -304 -47 -485 0 -188 6 -250
51 -494 9 -47 26 -114 39 -150 13 -36 29 -86 35 -111 11 -44 62 -167 102 -245
47 -92 101 -190 107 -195 4 -3 38 -52 76 -109 69 -105 95 -138 173 -216 23
-23 42 -46 42 -51 0 -5 28 -34 61 -64 34 -30 82 -74 108 -98 25 -23 54 -45 63
-48 10 -3 18 -9 18 -14 0 -7 136 -105 220 -157 60 -38 304 -163 318 -163 4 0
43 -15 87 -34 77 -32 197 -67 375 -108 70 -17 133 -21 358 -25 180 -3 301 -1
355 6 148 22 444 100 532 141 11 5 43 18 70 29 74 29 225 106 264 135 19 14
39 26 43 26 5 0 44 23 86 52 138 92 277 215 407 359 31 35 72 81 91 101 19 21
34 45 34 53 0 8 4 15 9 15 11 0 130 176 173 256 17 33 39 75 49 94 11 19 19
41 19 49 0 8 6 22 13 30 32 37 129 325 147 436 7 39 19 102 28 140 32 144 28
571 -8 745 -5 25 -14 74 -20 110 -12 69 -48 198 -60 215 -4 6 -12 33 -19 60
-21 89 -169 389 -225 455 -14 17 -26 35 -26 40 0 7 -112 162 -145 200 -22 25
-109 119 -128 137 -10 10 -39 39 -64 66 -26 26 -49 47 -53 47 -4 0 -25 17 -47
38 -22 20 -66 56 -99 80 -32 24 -81 59 -107 78 -27 19 -61 40 -75 47 -15 6
-34 16 -42 22 -42 33 -258 134 -380 179 -114 41 -356 102 -460 115 -108 14
-366 19 -505 11z m1482 -877 c-4 -32 -14 -148 -22 -258 -9 -110 -27 -306 -40
-435 -31 -304 -43 -440 -55 -630 -5 -85 -16 -209 -24 -275 -8 -66 -17 -154
-21 -195 -3 -41 -12 -145 -20 -230 -8 -85 -19 -229 -25 -320 -6 -91 -13 -180
-16 -197 -6 -40 -36 -58 -131 -77 -38 -8 -93 -22 -123 -31 -30 -9 -111 -32
-180 -50 -69 -18 -161 -44 -205 -58 -44 -13 -114 -33 -155 -42 -41 -10 -105
-29 -141 -42 -84 -29 -166 -30 -245 -2 -72 25 -150 47 -229 64 -33 8 -93 25
-132 38 -40 14 -99 31 -130 38 -32 6 -97 25 -146 40 -48 16 -120 35 -160 43
-113 24 -135 34 -141 64 -7 34 -23 225 -31 357 -7 117 -26 340 -60 695 -13
140 -34 372 -45 515 -12 143 -28 312 -35 375 -8 63 -19 187 -25 275 -6 88 -15
201 -20 250 -5 50 -10 102 -10 118 l0 27 1286 0 1287 0 -6 -57z"/>
<path d="M3198 4982 c-9 -2 -18 -9 -21 -15 -5 -14 15 -265 43 -537 11 -107 25
-253 30 -324 5 -71 12 -131 14 -133 2 -3 254 -4 559 -4 330 1 558 -2 561 -8 3
-5 1 -51 -4 -103 -6 -51 -13 -132 -17 -180 -3 -47 -9 -91 -12 -97 -8 -13 -176
-65 -278 -87 -66 -13 -81 -13 -147 1 -41 8 -85 19 -98 24 -26 11 -110 36 -149
45 -24 5 -27 11 -32 73 -4 38 -7 89 -7 115 0 82 9 78 -185 78 -145 0 -174 -2
-179 -15 -3 -9 -1 -50 4 -93 5 -42 16 -149 25 -236 9 -88 20 -168 26 -177 8
-16 124 -59 159 -59 7 0 64 -16 126 -36 63 -19 136 -39 162 -44 26 -5 70 -16
97 -24 136 -42 124 -41 220 -11 50 15 115 33 145 40 30 6 102 26 160 43 58 17
136 39 174 48 103 26 106 29 121 169 21 188 44 446 55 610 6 83 13 178 16 213
5 49 4 62 -7 64 -8 1 -275 2 -594 2 l-580 1 -7 85 c-3 47 -8 114 -10 150 l-3
65 616 3 c576 2 617 3 624 20 12 31 29 312 19 322 -8 8 -1586 20 -1626 12z"/>
</g>
</svg>
