<?xml version="1.0" standalone="no"?>
<!DOCTYPE svg PUBLIC "-//W3C//DTD SVG 20010904//EN"
 "http://www.w3.org/TR/2001/REC-SVG-20010904/DTD/svg10.dtd">
<svg version="1.0" xmlns="http://www.w3.org/2000/svg"
 width="800.000000pt" height="800.000000pt" viewBox="0 0 800.000000 800.000000"
 preserveAspectRatio="xMidYMid meet">
<metadata>
Created by potrace 1.16, written by Peter Selinger 2001-2019
</metadata>
<g transform="translate(0.000000,800.000000) scale(0.100000,-0.100000)"
fill="#000000" stroke="none">
<path d="M1770 6503 c0 -27 11 -163 25 -303 14 -140 32 -354 40 -475 13 -195
37 -474 66 -765 5 -52 14 -178 19 -280 6 -102 17 -248 25 -325 20 -197 52
-578 65 -785 6 -96 15 -211 20 -255 15 -128 40 -414 55 -630 19 -279 35 -464
48 -575 11 -88 14 -95 37 -102 14 -4 59 -16 100 -28 41 -12 111 -31 155 -43
44 -11 124 -33 179 -50 54 -16 146 -41 205 -57 58 -15 145 -39 194 -54 48 -14
93 -26 101 -26 8 0 63 -16 123 -35 60 -19 131 -39 158 -44 28 -5 91 -23 141
-40 49 -17 115 -35 145 -42 29 -6 92 -23 139 -39 180 -58 177 -58 298 -20 59
18 145 43 192 56 47 12 130 36 185 52 94 29 146 44 318 93 39 11 119 34 177
51 58 17 146 41 195 53 50 13 133 37 185 54 52 17 101 31 108 31 8 0 71 18
141 39 69 22 142 43 161 48 43 11 45 19 59 280 6 103 15 224 21 268 16 128 49
493 65 715 8 113 22 270 30 350 8 80 23 255 35 390 32 388 60 694 76 836 8 72
18 205 23 295 6 91 19 250 30 354 28 269 49 504 56 620 3 55 13 169 21 253 9
84 13 160 10 168 -5 12 -302 14 -2216 14 l-2210 0 0 -47z m3508 -939 l62 -6 0
-258 0 -258 -122 -48 c-68 -26 -128 -51 -134 -56 -6 -5 -42 -19 -80 -32 -38
-13 -91 -34 -119 -48 -27 -14 -63 -28 -79 -32 -16 -4 -60 -23 -98 -42 -39 -18
-76 -34 -83 -34 -7 0 -58 -20 -114 -45 -56 -25 -106 -45 -112 -45 -11 0 -39
-12 -134 -56 -27 -12 -75 -30 -105 -40 -62 -19 -80 -30 -80 -50 0 -12 94 -14
580 -14 l580 0 0 -49 c0 -27 -9 -130 -19 -228 -37 -333 -43 -398 -51 -548 -4
-82 -20 -271 -34 -420 -15 -148 -30 -306 -34 -350 l-7 -79 -75 -29 c-41 -15
-113 -39 -160 -52 -47 -13 -128 -37 -180 -54 -52 -18 -151 -49 -220 -70 -69
-22 -177 -56 -240 -77 -191 -62 -208 -64 -303 -44 -45 10 -127 32 -181 49 -55
17 -108 31 -118 31 -11 0 -65 15 -122 34 -56 19 -129 39 -161 46 -33 6 -91 23
-130 36 -38 13 -110 33 -160 44 -136 32 -194 52 -200 69 -3 9 -10 90 -16 181
-5 91 -15 233 -23 315 -8 83 -18 192 -21 243 l-7 92 255 0 c141 0 258 -3 260
-7 7 -12 35 -215 43 -311 3 -45 12 -88 19 -95 7 -7 57 -23 111 -36 119 -27
206 -49 254 -62 19 -6 73 -20 120 -31 100 -24 140 -20 405 36 88 18 198 39
245 45 99 13 106 19 115 100 3 31 15 128 25 216 26 213 43 432 36 450 -5 13
-126 15 -961 15 -525 0 -955 1 -955 3 0 13 -33 234 -50 332 -28 165 -28 162
23 184 23 11 87 40 143 65 55 25 103 46 107 46 4 0 45 18 92 40 47 22 90 40
95 40 5 0 47 18 92 39 83 39 245 110 348 151 30 12 60 26 66 31 6 5 35 18 65
28 30 10 77 30 104 44 28 13 67 30 88 37 26 8 37 17 37 31 0 19 -15 19 -654
19 l-654 0 -11 78 c-6 42 -23 152 -37 244 -15 91 -25 172 -22 180 5 11 231 14
1319 16 723 2 1342 0 1377 -4z"/>
</g>
</svg>
