<?xml version="1.0" standalone="no"?>
<!DOCTYPE svg PUBLIC "-//W3C//DTD SVG 20010904//EN"
 "http://www.w3.org/TR/2001/REC-SVG-20010904/DTD/svg10.dtd">
<svg version="1.0" xmlns="http://www.w3.org/2000/svg"
 width="800.000000pt" height="800.000000pt" viewBox="0 0 800.000000 800.000000"
 preserveAspectRatio="xMidYMid meet">
<metadata>
Created by potrace 1.16, written by Peter Selinger 2001-2019
</metadata>
<g transform="translate(0.000000,800.000000) scale(0.100000,-0.100000)"
fill="#000000" stroke="none">
<path d="M2423 5533 c-4 -9 -1 -71 6 -137 6 -67 18 -193 26 -281 9 -88 20
-191 26 -230 5 -38 14 -153 19 -255 6 -101 12 -192 15 -200 2 -8 9 -78 15
-155 6 -77 18 -194 26 -260 8 -66 19 -187 24 -270 5 -82 14 -199 20 -260 17
-175 49 -511 60 -615 5 -52 12 -138 15 -190 12 -210 28 -340 44 -354 15 -14
70 -31 196 -62 33 -8 110 -31 170 -50 61 -18 133 -38 160 -43 28 -6 77 -19
110 -31 33 -12 107 -34 165 -49 122 -32 305 -84 403 -113 l68 -21 65 22 c35
11 73 21 83 21 10 0 68 15 127 34 60 19 154 46 209 60 55 13 135 36 179 50 43
14 87 26 97 26 10 0 69 16 131 36 62 19 133 39 158 45 78 16 238 70 249 83 12
15 28 169 41 406 5 91 11 183 14 205 3 22 13 108 21 190 9 83 20 191 25 240 5
50 14 162 20 250 6 88 17 221 25 295 8 74 19 189 25 255 6 66 15 162 21 212 6
51 14 164 19 250 5 87 18 237 29 333 43 381 56 547 42 564 -12 14 -169 16
-1578 16 -1461 0 -1564 -1 -1570 -17z m1435 -1735 c1 -666 -1 -1028 -8 -1028
-15 0 -230 57 -360 95 -63 19 -137 39 -165 45 -27 6 -90 24 -140 40 -49 16
-116 35 -147 42 l-57 12 -7 45 c-7 45 2 280 11 289 9 9 173 -34 457 -120 54
-16 106 -28 115 -26 17 3 18 47 21 821 l2 818 138 -3 137 -3 3 -1027z m1249
1002 c-4 -16 -9 -78 -12 -137 -3 -59 -8 -123 -11 -140 l-5 -33 -327 -2 -327
-3 -3 -288 -2 -289 107 7 c114 7 183 14 377 40 66 8 121 13 124 10 7 -7 -25
-515 -61 -955 -2 -20 -11 -27 -62 -43 -102 -32 -188 -55 -232 -62 -23 -4 -90
-22 -150 -41 -59 -19 -115 -34 -124 -34 -14 0 -159 -39 -237 -64 l-22 -7 2
172 3 173 95 29 c52 16 117 33 144 38 47 8 63 12 209 58 37 11 80 21 95 21 54
0 57 7 63 172 3 84 3 159 1 166 -3 10 -15 12 -36 8 -17 -3 -65 -10 -106 -15
-86 -11 -209 -34 -327 -62 -95 -22 -133 -24 -133 -6 -1 11 -1 1263 0 1300 0
16 30 17 481 17 l482 0 -6 -30z"/>
</g>
</svg>
