<?xml version="1.0" standalone="no"?>
<!DOCTYPE svg PUBLIC "-//W3C//DTD SVG 20010904//EN"
 "http://www.w3.org/TR/2001/REC-SVG-20010904/DTD/svg10.dtd">
<svg version="1.0" xmlns="http://www.w3.org/2000/svg"
 width="800.000000pt" height="800.000000pt" viewBox="0 0 800.000000 800.000000"
 preserveAspectRatio="xMidYMid meet">
<metadata>
Created by potrace 1.16, written by Peter Selinger 2001-2019
</metadata>
<g transform="translate(0.000000,800.000000) scale(0.100000,-0.100000)"
fill="#000000" stroke="none">
<path d="M2581 6750 c-60 -9 -134 -35 -171 -60 -14 -9 -44 -30 -68 -45 -58
-38 -149 -138 -175 -191 -11 -24 -24 -44 -28 -44 -15 0 -73 -174 -106 -320
-13 -60 -17 -123 -17 -310 0 -211 3 -250 27 -380 15 -80 36 -197 47 -260 11
-63 23 -123 26 -132 7 -22 -7 -29 -184 -87 -82 -27 -167 -58 -190 -70 -23 -12
-47 -21 -54 -21 -7 0 -47 -17 -88 -39 -41 -21 -86 -42 -100 -46 -14 -4 -47
-22 -75 -40 -27 -17 -71 -42 -97 -55 -26 -13 -58 -34 -70 -47 -12 -13 -27 -23
-35 -23 -28 0 -303 -263 -303 -290 0 -4 -12 -22 -26 -39 -14 -17 -42 -68 -61
-113 -32 -75 -36 -94 -40 -200 -5 -111 -4 -122 27 -215 40 -123 109 -228 222
-340 76 -75 251 -213 269 -213 4 0 27 -13 51 -29 84 -56 374 -189 483 -222 68
-20 268 -89 273 -94 2 -2 -2 -23 -8 -46 -7 -24 -18 -80 -25 -124 -7 -44 -26
-145 -41 -225 -26 -135 -28 -163 -28 -400 1 -277 -4 -241 69 -505 9 -33 27
-78 40 -100 12 -22 32 -57 44 -79 48 -85 143 -174 258 -240 7 -4 57 -18 110
-33 84 -21 113 -24 203 -20 105 5 285 41 345 70 17 8 48 22 70 32 44 18 65 28
145 70 76 40 280 175 280 186 0 5 6 9 14 9 7 0 33 18 57 40 24 22 47 40 51 40
9 0 158 129 235 204 l53 50 47 -44 c26 -25 50 -47 53 -50 21 -20 154 -133 195
-165 28 -22 55 -44 60 -50 6 -6 23 -19 38 -29 16 -10 39 -26 51 -37 35 -31
157 -108 199 -126 20 -9 37 -19 37 -23 0 -4 60 -34 133 -68 426 -196 776 -142
993 153 75 102 129 253 164 455 27 152 11 542 -29 698 -5 20 -12 64 -16 97 -4
33 -17 104 -31 157 -13 53 -24 99 -24 102 0 2 26 12 58 21 31 9 91 29 132 45
41 15 93 33 115 40 22 7 68 25 103 41 35 16 67 29 72 29 11 0 267 125 283 138
7 6 35 22 62 37 28 15 61 37 75 49 14 12 36 29 50 38 67 42 270 247 270 274 0
4 11 21 24 38 36 49 51 84 76 181 39 157 12 350 -66 466 -18 27 -35 57 -38 67
-14 42 -281 292 -312 292 -8 0 -14 4 -14 9 0 15 -204 133 -325 188 -167 76
-186 84 -440 169 -60 21 -113 40 -117 43 -4 3 2 39 13 80 11 41 26 117 34 170
8 53 21 139 30 191 40 258 37 539 -10 717 -14 53 -25 104 -25 114 0 9 -25 66
-55 127 -72 146 -168 246 -295 310 -107 53 -191 67 -355 59 -169 -9 -246 -32
-465 -139 -111 -55 -329 -193 -415 -265 -22 -18 -56 -46 -75 -62 -91 -75 -178
-152 -209 -185 -19 -20 -41 -36 -48 -36 -7 0 -75 55 -150 123 -76 67 -152 132
-168 144 -108 81 -224 163 -231 163 -4 0 -17 8 -28 19 -57 51 -358 189 -476
217 -69 17 -288 26 -359 14z m328 -316 c98 -27 237 -91 356 -164 39 -23 72
-45 75 -49 3 -3 46 -35 95 -70 87 -62 136 -103 237 -197 26 -24 52 -44 57 -44
5 0 18 -15 29 -34 l20 -34 -98 -114 c-54 -62 -112 -127 -129 -144 -17 -18 -36
-43 -42 -58 -7 -14 -15 -26 -19 -26 -3 0 -40 -45 -81 -101 -41 -55 -87 -117
-104 -138 -16 -20 -37 -47 -45 -59 -13 -18 -30 -22 -140 -32 -157 -13 -320
-37 -430 -62 -47 -10 -117 -23 -155 -28 -39 -5 -82 -11 -96 -15 -26 -6 -26 -6
-58 127 -62 259 -86 567 -61 777 19 152 27 185 68 271 103 214 250 269 521
194z m2499 9 c92 -36 152 -101 193 -208 66 -168 64 -156 64 -460 l0 -280 -43
-210 c-24 -115 -45 -212 -47 -216 -5 -8 -95 6 -310 47 -99 19 -232 39 -295 44
-208 17 -231 21 -249 42 -9 12 -26 32 -38 46 -13 14 -23 28 -23 33 0 4 -17 28
-37 53 -21 25 -60 75 -88 112 -72 96 -160 203 -229 277 -47 51 -96 113 -96
122 0 18 187 197 256 245 12 8 64 48 117 88 53 39 101 72 106 72 5 0 22 11 38
24 15 12 78 48 138 79 225 116 405 146 543 90z m-1176 -1086 c55 -71 98 -130
96 -132 -2 -2 -155 -5 -340 -7 -295 -3 -335 -1 -330 12 3 8 40 57 81 109 42
51 84 105 93 119 17 26 35 46 115 125 l48 48 68 -73 c38 -40 114 -131 169
-201z m319 -454 c14 -6 36 -26 48 -45 12 -18 43 -67 71 -108 67 -102 163 -261
173 -285 4 -11 14 -26 22 -35 17 -19 85 -144 131 -240 20 -41 42 -82 50 -91
19 -21 84 -177 84 -201 0 -16 -32 -88 -63 -143 -15 -25 -86 -159 -132 -248
-20 -38 -49 -87 -66 -109 -16 -23 -29 -46 -29 -52 0 -6 -21 -42 -45 -80 -25
-38 -45 -74 -45 -79 0 -6 -7 -17 -16 -26 -17 -17 -105 -149 -140 -210 -20 -35
-22 -36 -100 -44 -108 -11 -812 -13 -957 -3 l-119 8 -39 57 c-74 104 -139 206
-139 215 0 4 -15 29 -34 55 -18 25 -45 69 -59 97 -15 29 -32 58 -40 65 -7 8
-25 39 -40 69 -14 30 -44 87 -64 125 -21 39 -51 95 -67 125 -15 30 -34 66 -42
80 -7 14 -23 44 -34 66 l-20 41 30 54 c16 30 35 70 41 89 7 19 15 37 19 40 7
5 69 116 133 240 18 36 46 83 61 105 16 22 32 49 36 61 5 11 27 49 49 84 23
35 41 69 41 76 0 7 4 14 8 16 11 4 72 94 72 106 0 4 15 26 33 48 19 21 39 49
46 61 15 29 36 30 631 28 329 -1 493 -5 511 -12z m569 -64 c89 -10 309 -54
347 -69 22 -9 22 -11 7 -52 -8 -24 -21 -57 -29 -73 -8 -17 -19 -51 -24 -76 -6
-25 -23 -75 -39 -110 -16 -35 -39 -94 -52 -131 -13 -38 -27 -68 -30 -68 -3 0
-21 30 -39 68 -19 37 -39 74 -46 82 -7 8 -28 44 -46 80 -18 36 -42 79 -54 95
-12 17 -34 55 -49 85 -16 30 -36 64 -45 75 -10 11 -22 31 -29 45 -6 14 -20 36
-29 49 l-18 24 45 -7 c25 -4 83 -12 130 -17z m-2100 7 c0 -8 -43 -79 -72 -120
-15 -21 -28 -42 -28 -47 0 -4 -20 -40 -45 -80 -25 -40 -45 -77 -45 -83 0 -5
-7 -17 -15 -26 -8 -8 -32 -49 -53 -90 -50 -96 -76 -140 -82 -140 -3 0 -13 27
-24 60 -10 32 -26 75 -36 93 -10 19 -26 61 -36 93 -9 33 -26 82 -39 109 -25
59 -50 144 -43 150 11 11 231 57 328 70 111 13 190 18 190 11z m-807 -173 c8
-10 23 -47 32 -82 9 -35 34 -108 56 -163 21 -54 39 -103 39 -109 0 -6 6 -25
14 -42 54 -122 66 -151 66 -160 0 -5 18 -48 41 -94 23 -46 41 -99 41 -116 -1
-18 -19 -69 -41 -114 -23 -45 -41 -87 -41 -94 0 -6 -14 -40 -30 -75 -17 -34
-41 -94 -54 -131 -86 -249 -125 -356 -133 -364 -6 -6 -26 -4 -54 6 -24 9 -64
20 -89 26 -25 5 -54 14 -65 19 -11 5 -58 23 -105 41 -230 85 -443 201 -580
316 -99 84 -152 149 -203 253 -32 67 -30 168 6 241 48 96 68 123 151 202 109
105 216 176 386 257 36 17 77 37 91 45 70 39 391 150 445 154 6 1 18 -7 27
-16z m3631 6 c74 -19 151 -43 161 -50 6 -3 35 -14 65 -24 64 -20 218 -87 339
-148 217 -109 379 -249 453 -392 38 -72 42 -87 42 -155 1 -67 -3 -83 -37 -152
-20 -43 -53 -92 -72 -109 -19 -18 -37 -40 -40 -50 -4 -11 -12 -19 -19 -19 -7
0 -29 -18 -50 -40 -20 -22 -41 -40 -45 -40 -5 0 -28 -16 -51 -35 -23 -19 -65
-46 -93 -61 -29 -14 -59 -31 -67 -38 -18 -15 -228 -116 -242 -116 -9 0 -112
-39 -173 -66 -49 -21 -178 -56 -210 -58 -29 -1 -31 1 -66 104 -81 237 -141
391 -209 540 -21 47 -42 97 -45 112 -8 33 6 83 50 168 18 36 36 76 40 90 3 14
24 68 44 120 92 229 121 307 127 340 9 45 31 90 46 90 6 0 29 -5 52 -11z
m-3134 -1169 c4 -3 26 -41 49 -85 67 -128 129 -237 146 -255 8 -9 15 -22 15
-29 0 -7 13 -31 29 -54 32 -47 74 -127 69 -132 -2 -2 -57 6 -123 16 -66 10
-156 24 -200 29 -44 6 -93 15 -110 19 -16 5 -42 12 -57 15 -37 8 -36 25 10
149 22 56 44 116 49 132 6 17 25 66 43 110 18 44 37 91 42 105 9 24 10 24 20
5 6 -11 14 -22 18 -25z m2607 13 c40 -98 97 -245 108 -283 7 -25 25 -76 39
-115 14 -38 26 -72 26 -75 0 -10 -115 -40 -190 -49 -41 -6 -133 -19 -204 -31
-71 -11 -131 -19 -133 -16 -6 6 46 107 67 131 10 11 28 40 41 65 12 25 36 68
53 95 43 69 60 100 99 175 43 84 71 130 77 130 3 0 10 -12 17 -27z m-2726
-802 c153 -33 200 -41 463 -73 216 -26 196 -16 293 -150 31 -43 60 -78 65 -78
4 0 8 -6 8 -14 0 -8 14 -28 30 -46 17 -18 40 -47 52 -64 12 -17 25 -33 28 -36
22 -17 240 -286 240 -296 0 -12 -118 -134 -130 -134 -3 0 -27 -19 -53 -42 -71
-65 -121 -106 -185 -150 -31 -22 -58 -44 -60 -49 -2 -5 -9 -9 -16 -9 -7 0 -37
-17 -67 -38 -30 -21 -76 -49 -104 -62 -27 -13 -57 -29 -65 -35 -26 -21 -255
-93 -317 -100 -163 -19 -307 60 -375 205 -52 110 -59 137 -74 265 -20 168 -5
556 26 670 6 22 17 67 25 100 32 147 39 165 60 165 12 0 82 -13 156 -29z
m2993 -8 c4 -21 18 -87 31 -148 50 -228 56 -298 53 -562 l-3 -248 -39 -113
c-30 -87 -50 -127 -85 -170 -25 -32 -49 -58 -53 -60 -4 -2 -23 -14 -41 -26
-88 -60 -237 -60 -412 0 -60 20 -121 45 -135 54 -14 9 -52 30 -85 45 -33 16
-62 32 -65 36 -3 4 -31 23 -63 42 -65 40 -126 83 -200 144 -29 24 -62 51 -73
60 -77 63 -214 187 -214 194 0 4 22 31 48 61 27 29 57 64 68 77 10 13 53 63
94 111 95 111 151 183 228 290 91 128 86 125 242 145 74 9 171 20 215 25 101
11 182 25 315 54 58 13 119 24 136 25 29 1 32 -2 38 -36z m-1261 -135 c-5 -7
-37 -49 -70 -93 -62 -82 -139 -174 -219 -258 l-45 -48 -44 46 c-94 102 -115
125 -115 131 0 4 -19 28 -42 55 -43 47 -119 143 -132 167 -6 9 64 12 335 12
272 0 339 -3 332 -12z"/>
<path d="M3844 4476 c-172 -54 -303 -166 -390 -335 -32 -60 -45 -197 -33 -330
21 -237 235 -451 481 -483 197 -26 370 29 507 162 71 68 129 164 156 254 21
68 20 256 -1 326 -54 182 -205 333 -403 401 -65 23 -251 25 -317 5z"/>
</g>
</svg>
