<?xml version="1.0" standalone="no"?>
<!DOCTYPE svg PUBLIC "-//W3C//DTD SVG 20010904//EN"
 "http://www.w3.org/TR/2001/REC-SVG-20010904/DTD/svg10.dtd">
<svg version="1.0" xmlns="http://www.w3.org/2000/svg"
 width="800.000000pt" height="800.000000pt" viewBox="0 0 800.000000 800.000000"
 preserveAspectRatio="xMidYMid meet">
<metadata>
Created by potrace 1.16, written by Peter Selinger 2001-2019
</metadata>
<g transform="translate(0.000000,800.000000) scale(0.100000,-0.100000)"
fill="#000000" stroke="none">
<path d="M4012 4798 c-9 -9 -12 -89 -12 -300 l0 -288 -50 25 c-77 39 -112 33
-220 -39 -30 -20 -58 -36 -63 -36 -5 0 -29 -14 -54 -30 -24 -17 -63 -40 -86
-51 -81 -41 -77 -25 -77 -281 0 -258 -2 -250 86 -289 24 -11 46 -24 49 -30 4
-5 34 -23 67 -40 34 -17 83 -46 110 -65 83 -56 132 -56 220 4 24 15 68 41 98
56 30 16 64 36 75 46 11 9 32 20 46 24 15 3 41 19 58 35 l31 29 -1 544 0 543
-27 21 c-15 12 -56 37 -92 56 -36 19 -81 45 -100 57 -41 25 -42 25 -58 9z
m-55 -906 l43 -27 0 -70 0 -71 -53 -32 c-29 -18 -65 -32 -80 -32 -27 0 -105
42 -119 64 -10 15 -10 128 0 143 4 7 32 26 62 42 60 33 71 31 147 -17z"/>
<path d="M6020 4275 c-14 -7 -39 -20 -57 -29 -17 -8 -55 -30 -85 -48 -29 -19
-60 -37 -69 -40 -34 -13 -159 -100 -169 -118 -6 -11 -10 -109 -10 -239 l0
-220 31 -36 c17 -19 43 -38 58 -42 14 -3 37 -14 50 -25 16 -12 40 -18 76 -18
48 0 56 3 84 35 l31 36 0 229 0 230 -27 6 c-55 14 -58 6 -63 -221 -6 -244 -5
-241 -91 -200 -69 32 -69 32 -69 257 0 126 3 160 15 172 17 16 129 86 139 86
4 0 33 17 64 38 31 20 74 45 95 55 37 16 39 16 80 -4 23 -12 56 -32 72 -45 17
-13 45 -29 61 -36 17 -7 63 -33 102 -58 l71 -45 1 -166 c0 -218 -1 -223 -59
-250 -25 -12 -59 -31 -76 -43 -16 -11 -54 -34 -85 -49 -30 -15 -71 -39 -92
-53 -34 -24 -38 -25 -66 -10 -17 9 -34 20 -37 26 -14 22 -105 1 -105 -24 0
-16 33 -43 89 -73 66 -35 119 -29 199 25 33 23 65 42 70 42 6 0 33 15 61 34
28 19 72 45 97 58 84 42 84 41 84 289 0 120 -4 229 -9 242 -6 14 -20 28 -33
32 -13 4 -32 15 -43 25 -11 10 -45 30 -75 46 -30 15 -74 40 -97 56 -46 31
-162 88 -178 88 -5 0 -21 -7 -35 -15z"/>
<path d="M1570 4225 c-41 -24 -86 -50 -100 -57 -47 -24 -125 -72 -128 -80 -2
-4 -12 -8 -22 -8 -10 0 -27 -8 -39 -17 -21 -18 -21 -22 -19 -328 3 -355 -1
-342 91 -283 29 18 54 36 55 40 2 5 11 8 20 8 19 0 102 54 114 73 4 7 8 75 8
152 1 159 3 166 81 203 l46 22 46 -20 c80 -36 87 -52 87 -210 0 -160 -1 -158
102 -214 37 -20 84 -47 104 -61 70 -48 69 -55 72 275 1 162 0 305 -3 318 -4
15 -19 29 -42 39 -20 8 -51 25 -67 38 -17 12 -58 37 -91 55 -33 17 -87 47
-120 65 -33 19 -73 35 -90 35 -18 0 -60 -18 -105 -45z"/>
<path d="M2698 4241 c-32 -16 -71 -39 -87 -50 -15 -11 -39 -25 -52 -30 -13 -5
-49 -25 -79 -45 -30 -20 -60 -36 -66 -36 -6 0 -23 -11 -38 -25 l-26 -24 0
-224 c0 -258 -4 -245 96 -299 99 -53 162 -91 223 -130 84 -56 107 -58 187 -12
150 87 201 116 249 140 87 45 86 43 88 298 l2 224 -24 26 c-14 14 -30 26 -36
26 -6 0 -39 18 -73 40 -33 22 -65 40 -69 40 -5 0 -33 16 -63 36 -77 50 -125
74 -152 74 -13 0 -49 -13 -80 -29z"/>
<path d="M4888 4242 c-143 -82 -187 -107 -220 -129 -20 -14 -52 -32 -70 -42
-56 -27 -59 -43 -56 -284 l3 -218 35 -29 c19 -16 45 -31 57 -35 12 -3 42 -18
65 -34 24 -16 64 -39 91 -51 26 -12 47 -26 47 -30 0 -4 26 -19 58 -33 66 -30
100 -27 156 17 18 13 62 38 99 54 88 40 89 57 5 112 -34 22 -65 40 -69 40 -4
0 -40 20 -80 45 -40 25 -77 45 -81 45 -5 0 -14 5 -21 11 -7 5 -27 19 -44 29
-32 19 -33 21 -33 89 0 78 8 89 89 125 40 19 42 19 82 0 80 -35 89 -48 89
-120 0 -63 0 -64 28 -64 15 0 52 15 82 34 30 19 80 48 111 65 31 16 59 37 63
46 3 9 6 45 6 80 0 71 -7 83 -74 117 -22 11 -54 31 -71 43 -16 12 -55 34 -85
49 -30 16 -62 34 -70 41 -25 21 -103 55 -124 54 -12 0 -42 -13 -68 -27z"/>
<path d="M6043 3983 c-36 -18 -53 -50 -53 -98 0 -84 34 -109 177 -128 77 -11
83 -13 83 -34 0 -55 -154 -61 -179 -7 -13 28 -49 45 -81 37 -19 -5 -21 -11
-16 -41 3 -20 9 -38 14 -41 5 -3 11 -13 14 -22 19 -50 200 -69 279 -29 48 25
62 57 56 124 -6 67 -24 79 -152 101 -104 18 -106 19 -103 44 3 24 8 26 52 29
69 4 93 -4 110 -37 26 -50 86 -50 86 0 0 80 -59 119 -176 118 -51 0 -90 -6
-111 -16z"/>
<path d="M4902 3872 c-27 -22 -32 -34 -32 -68 0 -36 5 -45 34 -68 42 -31 64
-33 110 -5 33 19 36 24 36 69 0 44 -4 52 -33 74 -43 33 -74 32 -115 -2z"/>
</g>
</svg>
