<?xml version="1.0" standalone="no"?>
<!DOCTYPE svg PUBLIC "-//W3C//DTD SVG 20010904//EN"
 "http://www.w3.org/TR/2001/REC-SVG-20010904/DTD/svg10.dtd">
<svg version="1.0" xmlns="http://www.w3.org/2000/svg"
 width="800.000000pt" height="800.000000pt" viewBox="0 0 800.000000 800.000000"
 preserveAspectRatio="xMidYMid meet">
<metadata>
Created by potrace 1.16, written by Peter Selinger 2001-2019
</metadata>
<g transform="translate(0.000000,800.000000) scale(0.100000,-0.100000)"
fill="#000000" stroke="none">
<path d="M3755 5861 c-39 -4 -75 -10 -81 -13 -6 -4 -47 -11 -91 -17 -76 -10
-227 -54 -247 -72 -6 -5 -18 -9 -27 -9 -43 0 -322 -162 -389 -226 -14 -13 -36
-34 -50 -47 -27 -26 -101 -108 -138 -152 -82 -99 -197 -311 -266 -490 -33 -87
-66 -202 -66 -231 0 -30 27 -12 70 47 61 84 208 220 305 284 67 44 153 84 280
130 42 15 232 24 325 15 153 -15 363 -101 455 -187 10 -10 32 -28 49 -40 16
-12 133 -125 260 -250 280 -276 416 -383 631 -496 55 -28 202 -86 246 -97 24
-6 89 -21 144 -34 234 -56 609 -61 820 -11 61 14 131 30 157 35 77 14 314 118
359 156 8 8 20 14 25 14 14 0 161 113 217 168 53 51 167 186 167 197 0 4 20
34 45 67 25 33 45 64 45 68 0 5 18 39 40 78 22 38 40 74 40 81 0 6 13 40 29
74 16 34 37 87 46 117 10 30 26 79 36 108 25 69 25 92 -1 92 -11 0 -20 -6 -20
-13 0 -28 -240 -271 -297 -301 -16 -8 -36 -22 -43 -31 -13 -16 -162 -90 -225
-113 -113 -40 -335 -48 -484 -18 -98 19 -249 85 -305 133 -22 18 -43 33 -47
33 -13 0 -97 79 -329 305 -118 115 -241 230 -274 255 -32 25 -72 57 -89 73
-18 15 -41 30 -52 34 -11 3 -25 12 -30 20 -21 28 -224 129 -354 174 -189 68
-341 91 -606 95 -115 1 -242 -1 -280 -5z"/>
<path d="M2225 3944 c-16 -2 -96 -14 -178 -25 -106 -14 -173 -30 -240 -54 -50
-19 -97 -35 -104 -35 -19 0 -225 -109 -265 -141 -20 -16 -41 -29 -45 -29 -5 0
-31 -21 -58 -46 -28 -25 -60 -55 -73 -66 -45 -40 -150 -164 -192 -228 -73
-108 -113 -183 -174 -330 -15 -36 -34 -79 -42 -97 -8 -17 -14 -36 -14 -42 0
-6 -11 -45 -25 -87 -30 -91 -30 -94 -7 -94 10 0 35 23 57 53 119 158 313 310
481 378 138 55 184 64 329 63 179 -1 323 -41 467 -128 110 -67 180 -129 429
-384 138 -141 275 -260 401 -347 51 -36 225 -135 236 -135 5 0 39 -15 78 -34
79 -38 310 -100 434 -115 125 -16 489 -14 585 3 137 24 327 77 405 113 106 47
200 97 200 104 0 4 11 10 24 13 33 8 99 63 215 176 100 100 181 194 181 213 0
6 9 20 19 31 22 24 96 159 128 231 88 204 104 253 119 360 l6 40 -51 -55
c-215 -230 -286 -290 -443 -365 -147 -72 -355 -102 -510 -75 -32 6 -83 14
-113 20 -73 12 -211 80 -303 148 -41 30 -173 151 -295 270 -122 120 -232 226
-245 237 -13 11 -42 37 -64 58 -22 20 -44 37 -47 37 -4 0 -22 13 -41 30 -28
25 -67 51 -180 119 -132 81 -376 165 -555 193 -124 18 -457 33 -530 22z"/>
</g>
</svg>
