<?xml version="1.0" standalone="no"?>
<!DOCTYPE svg PUBLIC "-//W3C//DTD SVG 20010904//EN"
 "http://www.w3.org/TR/2001/REC-SVG-20010904/DTD/svg10.dtd">
<svg version="1.0" xmlns="http://www.w3.org/2000/svg"
 width="800.000000pt" height="800.000000pt" viewBox="0 0 800.000000 800.000000"
 preserveAspectRatio="xMidYMid meet">
<metadata>
Created by potrace 1.16, written by Peter Selinger 2001-2019
</metadata>
<g transform="translate(0.000000,800.000000) scale(0.100000,-0.100000)"
fill="#000000" stroke="none">
<path d="M4441 5797 c-6 -8 -14 -29 -17 -48 -9 -46 -91 -215 -124 -253 -14
-17 -55 -69 -90 -116 -60 -79 -144 -182 -187 -228 -125 -137 -185 -202 -223
-243 -142 -151 -186 -209 -222 -289 -27 -59 -29 -73 -26 -145 5 -85 31 -149
90 -218 14 -18 46 -55 70 -84 95 -115 252 -273 269 -273 30 0 23 46 -15 104
-18 28 -44 71 -56 96 -13 25 -33 59 -45 75 -12 17 -40 71 -61 120 -32 75 -39
104 -42 174 -4 80 -3 86 34 159 41 80 113 162 219 247 123 100 273 265 326
359 99 174 130 266 136 408 7 149 -3 194 -36 155z"/>
<path d="M4589 5056 c-36 -13 -74 -29 -85 -35 -10 -6 -44 -20 -76 -31 -31 -12
-73 -34 -93 -50 -21 -17 -44 -30 -51 -30 -7 0 -49 -36 -94 -80 -80 -80 -116
-139 -150 -244 -22 -69 -8 -207 33 -308 19 -47 44 -100 56 -116 28 -40 71
-168 71 -212 0 -19 -4 -49 -9 -67 -14 -49 10 -77 62 -70 50 7 83 31 122 88 29
43 30 47 30 164 0 119 0 121 -37 190 -123 237 -135 322 -59 439 26 41 124 146
136 146 4 0 28 18 54 40 26 22 50 40 54 40 3 0 42 27 86 61 125 93 101 129
-50 75z"/>
<path d="M3315 3881 c-27 -10 -63 -25 -80 -34 -16 -8 -50 -23 -74 -33 -24 -10
-55 -27 -69 -38 -14 -11 -39 -27 -56 -36 -26 -12 -31 -21 -31 -50 0 -33 4 -37
57 -63 31 -15 92 -34 135 -43 43 -9 96 -20 118 -25 83 -19 347 -21 580 -5 479
34 605 48 708 82 55 18 60 42 12 57 -46 15 -524 13 -855 -2 -316 -15 -430 -10
-430 16 0 9 29 43 66 76 53 48 64 65 62 86 -3 23 -8 26 -48 28 -25 1 -67 -6
-95 -16z"/>
<path d="M4980 3891 c-26 -4 -35 -11 -35 -25 0 -15 12 -23 50 -32 27 -7 59
-18 71 -25 28 -14 64 -79 64 -113 0 -41 -48 -167 -74 -196 -13 -14 -32 -38
-42 -55 -10 -16 -26 -36 -35 -42 -10 -7 -38 -41 -64 -75 -50 -67 -58 -110 -19
-116 55 -8 246 135 384 288 48 53 54 70 48 153 -3 52 -10 71 -38 111 -43 60
-125 114 -192 126 -54 11 -64 11 -118 1z"/>
<path d="M3283 3424 c-7 -3 -13 -19 -13 -36 0 -39 66 -114 130 -146 129 -65
125 -65 404 -69 292 -6 406 5 626 59 127 31 160 47 160 79 0 45 -56 51 -460
50 -355 -1 -576 13 -687 43 -64 17 -143 27 -160 20z"/>
<path d="M3510 3009 c-52 -5 -105 -13 -117 -19 -44 -19 -22 -68 58 -128 21
-16 164 -56 274 -78 122 -24 423 -24 547 0 213 41 313 97 268 151 -31 37 -186
60 -500 75 -246 11 -393 11 -530 -1z"/>
<path d="M3040 2830 c-25 -4 -79 -23 -120 -42 -42 -20 -87 -39 -100 -43 -25
-7 -129 -80 -142 -99 -42 -61 62 -123 252 -151 52 -8 136 -21 185 -28 275 -45
361 -50 737 -44 232 4 395 11 453 20 373 58 472 78 655 132 143 43 232 119
188 163 -20 20 -49 14 -112 -27 -48 -30 -80 -42 -151 -54 -356 -64 -409 -70
-815 -87 -308 -13 -384 -13 -595 1 -237 15 -442 50 -461 80 -7 12 60 79 107
106 29 17 49 50 42 71 -5 13 -52 14 -123 2z"/>
<path d="M5140 2505 c-47 -7 -146 -29 -220 -48 -74 -19 -175 -38 -225 -41 -49
-4 -166 -13 -260 -21 -93 -8 -323 -19 -510 -24 -236 -7 -362 -14 -410 -25 -39
-8 -81 -16 -95 -18 -17 -2 -25 -9 -25 -22 0 -40 59 -48 374 -54 367 -6 697 14
1001 59 36 5 111 16 166 24 56 8 123 24 150 35 142 59 184 82 196 103 21 40
-24 50 -142 32z"/>
</g>
</svg>
