<?xml version="1.0" standalone="no"?>
<!DOCTYPE svg PUBLIC "-//W3C//DTD SVG 20010904//EN"
 "http://www.w3.org/TR/2001/REC-SVG-20010904/DTD/svg10.dtd">
<svg version="1.0" xmlns="http://www.w3.org/2000/svg"
 width="800.000000pt" height="800.000000pt" viewBox="0 0 800.000000 800.000000"
 preserveAspectRatio="xMidYMid meet">
<metadata>
Created by potrace 1.16, written by Peter Selinger 2001-2019
</metadata>
<g transform="translate(0.000000,800.000000) scale(0.100000,-0.100000)"
fill="#000000" stroke="none">
<path d="M4390 6093 c-52 -8 -128 -23 -167 -33 -88 -24 -99 -24 -215 -4 -175
32 -375 18 -513 -35 -27 -11 -75 -29 -106 -41 l-56 -21 -84 20 c-257 60 -319
70 -479 77 -259 12 -447 -33 -630 -149 -120 -77 -235 -245 -285 -416 -17 -58
-45 -294 -45 -381 0 -128 53 -456 94 -582 7 -24 17 -65 20 -92 3 -27 22 -101
41 -165 19 -64 43 -145 54 -181 30 -100 101 -301 121 -340 9 -19 23 -53 30
-75 21 -66 102 -224 162 -316 68 -105 135 -173 213 -219 53 -31 67 -35 130
-35 71 1 81 4 185 66 26 16 38 18 50 10 32 -23 107 -59 145 -70 58 -17 230
-40 302 -41 55 0 173 19 214 35 14 5 17 -14 22 -166 11 -290 46 -517 95 -618
20 -41 120 -151 137 -151 8 0 15 -4 17 -9 2 -5 26 -20 55 -35 130 -65 386 -56
562 21 29 12 59 23 65 23 16 0 92 54 144 104 78 73 162 246 162 334 0 20 5 57
11 81 13 58 56 357 64 453 l7 77 112 -1 c164 -1 328 31 429 85 148 78 267 241
267 365 0 54 -3 60 -39 96 -50 49 -93 59 -185 40 -98 -19 -296 -30 -296 -16 0
6 18 43 40 84 48 87 170 334 170 344 0 3 16 41 36 83 79 168 183 502 222 715
20 113 26 174 26 306 1 250 -22 311 -176 460 -74 71 -144 130 -156 130 -5 0
-21 11 -37 24 -15 13 -50 34 -79 46 -28 12 -73 33 -101 45 -69 31 -141 55
-168 55 -12 0 -54 7 -92 15 -89 19 -364 18 -495 -2z m540 -147 c87 -19 150
-39 205 -67 44 -21 84 -39 88 -39 4 0 47 -29 95 -64 146 -108 201 -180 231
-301 31 -126 34 -188 17 -324 -27 -204 -71 -385 -155 -641 -19 -56 -76 -190
-117 -275 -24 -50 -44 -96 -44 -104 0 -7 -9 -26 -21 -42 -11 -16 -33 -57 -49
-91 -16 -35 -43 -83 -59 -108 -17 -25 -31 -48 -31 -52 0 -5 -16 -30 -35 -57
-62 -86 -46 -103 103 -109 102 -4 137 0 278 29 33 6 73 9 88 5 38 -9 66 -41
66 -74 0 -34 -58 -113 -104 -142 -17 -10 -44 -30 -59 -44 -17 -14 -83 -43
-155 -67 l-127 -42 -164 -1 -164 -1 -8 -25 c-5 -14 -12 -63 -18 -110 -45 -405
-72 -581 -102 -662 -31 -84 -51 -128 -60 -128 -4 0 -17 -15 -28 -33 -18 -30
-75 -73 -140 -107 -36 -18 -147 -47 -235 -60 -116 -17 -267 16 -317 69 -9 10
-29 27 -43 38 -41 33 -106 185 -116 273 -11 85 -32 604 -28 665 4 50 -22 59
-60 22 -58 -55 -201 -99 -317 -98 -133 1 -259 42 -308 101 -57 67 -21 123 100
159 220 66 226 68 276 121 65 70 63 87 -10 95 -32 4 -78 16 -102 26 -24 10
-51 19 -61 19 -18 0 -72 -55 -185 -189 -38 -46 -85 -97 -102 -114 -18 -17 -33
-36 -33 -42 0 -7 -11 -20 -25 -29 -13 -9 -38 -29 -54 -45 -40 -40 -109 -54
-191 -39 -59 10 -65 14 -145 95 -46 46 -87 94 -91 106 -3 12 -12 29 -19 37
-28 35 -122 235 -162 350 -59 164 -153 469 -153 494 0 9 -18 87 -39 173 -38
153 -46 198 -76 403 -24 158 -14 328 28 530 24 111 103 254 177 316 76 64 109
85 181 112 149 56 188 62 379 62 181 -1 264 -12 425 -58 39 -11 86 -23 105
-26 19 -3 48 -13 64 -21 39 -20 69 -19 91 5 10 11 24 20 30 20 7 0 23 9 37 19
13 11 53 29 89 41 55 19 88 23 229 24 91 0 219 -1 285 -4 105 -4 134 -1 235
22 152 35 161 36 335 33 118 -2 177 -8 275 -29z"/>
<path d="M4468 5880 c-100 -12 -128 -20 -128 -35 0 -11 128 -95 144 -95 13 0
193 -149 231 -191 36 -40 80 -98 150 -199 44 -63 133 -254 145 -311 13 -59 12
-105 -11 -353 -10 -108 -10 -172 -1 -295 22 -284 14 -373 -38 -484 -17 -37
-29 -71 -25 -77 12 -19 45 -10 61 18 9 15 25 39 36 55 31 46 198 384 219 444
10 31 23 61 28 67 4 6 19 43 31 81 13 39 34 99 46 135 22 62 33 105 83 315 40
172 52 345 31 455 -16 86 -76 162 -226 288 -46 39 -197 118 -251 131 -21 5
-74 19 -118 30 -91 25 -297 35 -407 21z"/>
<path d="M3689 5830 c-88 -11 -186 -53 -279 -119 -86 -61 -202 -212 -242 -314
-45 -115 -78 -213 -78 -237 0 -13 -7 -68 -16 -123 -12 -71 -14 -101 -6 -109 8
-8 34 -1 94 27 111 51 224 69 328 53 63 -10 82 -18 125 -52 55 -44 61 -57 103
-201 24 -84 26 -104 26 -310 l1 -220 -38 -105 c-21 -58 -50 -130 -64 -160 -49
-106 -80 -220 -67 -241 3 -5 21 -9 40 -9 19 0 56 -11 82 -24 39 -20 52 -35 80
-87 l32 -64 0 -310 c0 -352 20 -644 49 -710 10 -22 35 -66 55 -98 33 -51 47
-63 104 -90 88 -41 168 -42 302 -3 145 42 222 99 260 190 11 28 25 58 30 67
14 26 48 215 55 309 3 47 13 121 20 165 15 86 38 275 54 443 11 122 30 157
104 197 26 15 47 33 47 41 0 9 -12 32 -27 51 -46 60 -90 134 -129 216 -20 42
-40 77 -44 77 -4 0 -17 24 -29 53 -12 29 -35 73 -51 97 -17 25 -30 50 -30 57
0 6 -17 49 -39 95 -56 122 -95 283 -88 372 13 192 125 280 354 280 113 -1 118
2 102 59 -11 42 -109 217 -138 249 -12 12 -21 25 -21 29 0 23 -273 289 -296
289 -5 0 -31 16 -58 35 -27 19 -69 42 -95 51 -25 10 -50 21 -56 24 -24 17
-158 51 -235 60 -95 11 -237 11 -321 0z"/>
<path d="M2504 5811 c-99 -27 -204 -82 -263 -139 -86 -82 -130 -159 -169 -297
-24 -84 -26 -105 -27 -300 0 -167 3 -221 17 -265 9 -30 19 -77 22 -105 9 -64
22 -125 56 -255 15 -58 36 -141 45 -185 10 -44 22 -87 26 -95 10 -21 34 -96
50 -155 7 -27 28 -86 46 -130 18 -43 33 -84 33 -89 0 -19 141 -296 150 -296 6
0 10 -7 10 -16 0 -8 29 -44 64 -79 54 -54 71 -64 109 -70 69 -11 107 7 170 78
30 34 112 126 181 204 137 154 138 156 84 200 -42 34 -100 132 -124 210 -30
95 -33 177 -15 343 9 89 11 182 6 320 -12 343 35 590 156 818 22 42 65 105 95
141 30 35 54 71 52 79 -3 16 -70 38 -223 74 -134 31 -451 36 -551 9z"/>
<path d="M4665 4930 c-22 -11 -45 -19 -51 -20 -19 0 -65 -76 -76 -122 -5 -24
-7 -67 -3 -96 8 -67 66 -246 103 -321 16 -31 43 -85 60 -121 18 -36 36 -72 42
-80 5 -8 15 -26 20 -40 6 -14 24 -47 42 -75 17 -27 34 -61 38 -75 9 -34 47
-39 59 -8 23 61 32 204 21 333 -15 171 -14 386 3 510 9 61 11 107 5 118 -13
26 -206 24 -263 -3z"/>
<path d="M3273 4910 c-39 -10 -103 -38 -141 -60 l-70 -42 -6 -237 c-3 -130 -8
-280 -12 -335 -6 -106 1 -149 44 -246 53 -122 181 -222 309 -242 73 -11 88 -4
98 45 8 37 35 118 46 132 3 6 19 44 33 85 15 41 31 79 35 85 5 5 19 42 32 80
22 64 24 86 23 260 -1 213 -25 369 -64 410 -11 12 -20 27 -20 33 0 46 -184 65
-307 32z"/>
<path d="M4930 3643 c-83 -29 -100 -54 -100 -139 0 -49 2 -55 26 -64 40 -16
217 -12 297 6 145 33 319 126 291 154 -8 8 -37 7 -100 -4 -149 -26 -295 -15
-343 27 -20 18 -51 27 -71 20z"/>
<path d="M3545 3584 c-24 -25 -62 -68 -86 -95 -57 -63 -63 -66 -182 -96 -106
-26 -157 -47 -157 -64 0 -5 21 -20 48 -32 40 -18 66 -21 172 -22 122 0 127 1
195 34 68 33 150 103 173 148 23 43 15 90 -24 133 -51 56 -83 55 -139 -6z"/>
</g>
</svg>
